<?xml version="1.0" encoding="UTF-8"?>
<svg width="512" height="512" viewBox="0 0 512 512" xmlns="http://www.w3.org/2000/svg">
  <!-- Fondo circular con gradiente -->
  <defs>
    <linearGradient id="bgGradient" x1="0%" y1="0%" x2="100%" y2="100%">
      <stop offset="0%" style="stop-color:#4CAF50;stop-opacity:1" />
      <stop offset="100%" style="stop-color:#2E7D32;stop-opacity:1" />
    </linearGradient>
    <linearGradient id="racketGradient" x1="0%" y1="0%" x2="100%" y2="100%">
      <stop offset="0%" style="stop-color:#FFFFFF;stop-opacity:1" />
      <stop offset="100%" style="stop-color:#E0E0E0;stop-opacity:1" />
    </linearGradient>
  </defs>
  
  <!-- Fondo circular -->
  <circle cx="256" cy="256" r="240" fill="url(#bgGradient)" stroke="#1B5E20" stroke-width="8"/>
  
  <!-- Raqueta de tenis -->
  <!-- Cabeza de la raqueta -->
  <ellipse cx="256" cy="200" rx="80" ry="100" fill="url(#racketGradient)" stroke="#BDBDBD" stroke-width="3"/>
  
  <!-- Cordaje de la raqueta -->
  <!-- Líneas verticales -->
  <line x1="200" y1="120" x2="200" y2="280" stroke="#424242" stroke-width="2"/>
  <line x1="220" y1="120" x2="220" y2="280" stroke="#424242" stroke-width="2"/>
  <line x1="240" y1="120" x2="240" y2="280" stroke="#424242" stroke-width="2"/>
  <line x1="260" y1="120" x2="260" y2="280" stroke="#424242" stroke-width="2"/>
  <line x1="280" y1="120" x2="280" y2="280" stroke="#424242" stroke-width="2"/>
  <line x1="300" y1="120" x2="300" y2="280" stroke="#424242" stroke-width="2"/>
  <line x1="320" y1="120" x2="320" y2="280" stroke="#424242" stroke-width="2"/>
  
  <!-- Líneas horizontales -->
  <line x1="180" y1="140" x2="340" y2="140" stroke="#424242" stroke-width="2"/>
  <line x1="180" y1="160" x2="340" y2="160" stroke="#424242" stroke-width="2"/>
  <line x1="180" y1="180" x2="340" y2="180" stroke="#424242" stroke-width="2"/>
  <line x1="180" y1="200" x2="340" y2="200" stroke="#424242" stroke-width="2"/>
  <line x1="180" y1="220" x2="340" y2="220" stroke="#424242" stroke-width="2"/>
  <line x1="180" y1="240" x2="340" y2="240" stroke="#424242" stroke-width="2"/>
  <line x1="180" y1="260" x2="340" y2="260" stroke="#424242" stroke-width="2"/>
  
  <!-- Mango de la raqueta -->
  <rect x="250" y="300" width="12" height="120" fill="url(#racketGradient)" stroke="#BDBDBD" stroke-width="2"/>
  
  <!-- Empuñadura -->
  <rect x="248" y="400" width="16" height="40" fill="#8D6E63" stroke="#5D4037" stroke-width="2"/>
  
  <!-- Pelota de tenis -->
  <circle cx="350" cy="350" r="25" fill="#FFFFFF" stroke="#E0E0E0" stroke-width="2"/>
  <path d="M 325 350 Q 350 325 375 350 Q 350 375 325 350" fill="none" stroke="#E0E0E0" stroke-width="3"/>
  
  <!-- Texto "TENNIS" -->
  <text x="256" y="480" font-family="Arial, sans-serif" font-size="24" font-weight="bold" text-anchor="middle" fill="#FFFFFF">TENNIS</text>
</svg>
